<svg viewBox="0 0 24 24" xmlns="http://www.w3.org/2000/svg"><path d="M12.95 13.01L8.7 20.7a.5.5 0 00.43.74h4.72a.5.5 0 00.43-.25l2.5-4.27a.5.5 0 000-.5l-2.1-3.43a1 1 0 00-1.72.03zm-1.08-4.15L4.63 21.18a.5.5 0 01-.43.25H.51a.5.5 0 01-.42-.75l9-15.4 1.16-2a1.44 1.44 0 012.42-.09l1.2 1.72a.5.5 0 01.01.53L11.9 8.83l-.02.03zm8.8 8.59l-1.9 3.23a.5.5 0 00.42.75H23a1 1 0 00.85-1.51l-1.45-2.47a1 1 0 00-1.72 0zm-5.23-8.8l-.82 1.5a.5.5 0 000 .5l2.11 3.44a1 1 0 001.71-.02l.83-1.4a.5.5 0 000-.5l-2.1-3.54a1 1 0 00-1.73.03z" fill="#263cd9"/></svg>