<svg viewBox="0 0 341 77" xmlns="http://www.w3.org/2000/svg" fill-rule="evenodd" clip-rule="evenodd" stroke-linejoin="round" stroke-miterlimit="2">
    <path transform="translate(0,20)" d="M39.07 31.538L26.195 54.723a1.499 1.499 0 001.311 2.228h14.237a1.5 1.5 0 001.293-.74l7.58-12.896c.28-.478.275-1.07-.014-1.543L44.28 31.429a3.016 3.016 0 00-5.21.109zM35.812 18.98L13.93 56.21a1.5 1.5 0 01-1.294.74H1.5a1.498 1.498 0 01-1.295-2.256L27.382 8.182l.004-.008 3.52-6.022a4.342 4.342 0 017.318-.282l3.59 5.183a1.5 1.5 0 01.06 1.614l-6.008 10.222-.054.09zm26.563 25.954l-5.749 9.756a1.5 1.5 0 001.292 2.26h11.444a3.023 3.023 0 002.605-4.557l-4.395-7.46a3.017 3.017 0 00-5.197 0zm-15.78-26.558l-2.498 4.489a1.5 1.5 0 00.031 1.512l6.358 10.4a3.016 3.016 0 005.173-.044l2.481-4.22a1.502 1.502 0 00-.002-1.522l-6.31-10.682a3.015 3.015 0 00-5.233.067z" fill="#263cd9"/>
    <path transform="translate(0,20)" d="M111.256 18.968c-1.672-3.168-5.104-4.312-9.284-4.312-5.72 0-8.976 2.728-10.164 6.644l5.412 1.716c.748-2.156 2.992-2.904 4.752-2.904 2.816 0 4.136 1.012 4.356 3.256-4.444.66-7.876 1.144-10.164 1.98-3.828 1.408-5.192 3.872-5.192 7.172 0 3.96 2.816 7.216 7.92 7.216 3.652 0 5.984-1.056 8.096-3.564v2.904h5.236v-14.52c0-2.156-.044-3.828-.968-5.588zm-5.588 12.892c-.484 1.012-2.2 3.168-5.5 3.168-2.068 0-3.344-.968-3.344-2.596 0-1.188.704-2.024 2.464-2.728 1.364-.528 2.992-.836 6.996-1.54 0 1.144-.088 2.64-.616 3.696zM123.092 28.868h16.633c.748-8.624-3.608-14.212-11.089-14.212-7.04 0-12.012 5.06-12.012 12.848 0 7.128 5.06 12.232 12.364 12.232 4.576 0 8.757-2.508 10.56-6.864l-5.984-1.716c-.88 1.936-2.596 2.992-4.928 2.992-3.212 0-5.104-1.892-5.544-5.28zm5.808-9.02c2.86 0 4.356 1.364 4.796 4.576h-10.472c.616-3.036 2.464-4.576 5.676-4.576zM160.756 15.316v1.32c-1.584-1.232-3.652-1.98-6.116-1.98-6.82 0-11.264 5.28-11.264 12.54 0 7.128 4.4 12.54 10.956 12.54 2.244 0 4.136-.572 5.676-1.54v2.42c.088 2.64-2.42 4.004-5.104 4.004-1.672 0-3.212-.748-3.96-2.156l-5.544 2.684c1.804 3.08 5.412 5.148 9.46 5.148 5.236 0 9.636-2.024 10.78-6.38.264-1.012.352-2.024.352-3.212V15.316h-5.236zM155.3 34.412c-3.872 0-5.588-3.212-5.588-7.216 0-3.96 1.804-7.216 5.808-7.216 3.74 0 5.236 2.904 5.236 7.216s-1.452 7.216-5.456 7.216zM172.59 12.016h5.984v-5.28h-5.984v5.28zm0 27.06h5.984v-23.76h-5.984v23.76zM194.46 39.736c6.205 0 9.945-2.948 9.945-7.832 0-3.696-2.068-5.632-7.48-7.04-5.544-1.408-6.336-1.804-6.336-3.036 0-1.364 1.452-2.156 3.652-2.024 2.244.176 3.608 1.232 3.828 2.992l6.116-1.1c-.616-4.312-4.488-7.04-10.076-7.04-5.764 0-9.46 2.904-9.46 7.48 0 3.652 2.112 5.5 7.92 6.996 5.148 1.364 5.72 1.672 5.72 3.08 0 1.496-1.232 2.376-3.388 2.376-2.64 0-4.444-1.32-4.928-3.564l-6.116.924c.792 4.972 4.62 7.788 10.604 7.788zM208.804 22.884h13.2v4.62h-13.2zM228.163 12.016h5.984v-5.28h-5.984v5.28zm0 27.06h5.984v-23.76h-5.984v23.76zM251.218 39.736c5.5 0 9.416-2.816 10.78-7.876l-6.116-1.276c-.704 2.288-1.98 3.564-4.664 3.564-3.608 0-5.456-2.816-5.456-6.952 0-3.96 1.672-6.952 5.456-6.952 2.2 0 4.092 1.452 4.796 3.916l5.984-1.584c-1.056-4.884-5.104-7.92-10.692-7.92-7.26 0-11.88 5.324-11.88 12.54 0 7.128 4.4 12.54 11.792 12.54zM276.432 39.736c7.128 0 12.057-5.148 12.057-12.54 0-7.348-4.885-12.54-12.057-12.54-7.04 0-12.012 5.104-12.012 12.54 0 7.348 4.84 12.54 12.012 12.54zm0-5.588c-3.74 0-5.676-2.684-5.676-6.952 0-4.136 1.76-6.952 5.676-6.952 3.784 0 5.72 2.728 5.72 6.952 0 4.092-1.892 6.952-5.72 6.952zM306.307 14.612c-3.432 0-5.984 1.232-7.7 3.124v-2.42h-5.324v23.76h6.072V27.02c0-5.896 2.992-6.776 5.06-6.776 5.104 0 5.104 5.456 5.104 7.612v11.22h6.072V25.744c0-1.98 0-11.132-9.284-11.132zM330.594 39.736c6.204 0 9.944-2.948 9.944-7.832 0-3.696-2.068-5.632-7.48-7.04-5.544-1.408-6.336-1.804-6.336-3.036 0-1.364 1.452-2.156 3.652-2.024 2.244.176 3.608 1.232 3.828 2.992l6.116-1.1c-.616-4.312-4.488-7.04-10.076-7.04-5.764 0-9.46 2.904-9.46 7.48 0 3.652 2.112 5.5 7.92 6.996 5.148 1.364 5.72 1.672 5.72 3.08 0 1.496-1.232 2.376-3.388 2.376-2.64 0-4.444-1.32-4.928-3.564l-6.116.924c.792 4.972 4.62 7.788 10.604 7.788z" fill="#263cd9"/>
</svg>